<svg width="109" height="110" viewBox="0 0 109 110" xmlns="http://www.w3.org/2000/svg" fill="none"><path d="M72.267 29.7v-.013l-.001.001-2.4-1.439 2.399-1.439-.008-16.711c-6.535-.711-12.124-1.064-17.665-1.062-5.553.001-11.192.358-17.818 1.065v5.568c2.461-.238 4.894-.429 7.31-.572 8.22-.489 16.176-.424 24.298.252v7.219c-8.049-.7-15.859-.781-23.876-.305-7.259.431-14.707 1.22-22.733 2.522v40.04c8.375 1.287 15.15 2.046 22.112 2.418 7.768.414 15.391.313 24.443-.18v7.186c-9.131.489-16.878.583-24.809.161-2.311-.123-4.635-.291-7.011-.505v5.783c6.738.907 12.457 1.357 18.073 1.356 5.583-.002 11.193-.453 17.734-1.349v-21.581l-42.837-21.953.051-9.496c2.433-.323 4.822-.604 7.177-.841l-.028 6.139 42.837 21.954v12.02c1.526-.203 3.105-.437 4.735-.698.955-.153 1.944-.321 2.968-.504v-39.875c-1.266-.203-2.611-.401-3.956-.585-1.269-.174-2.569-.336-3.826-.479l.005 9.941-7.173-4.037zm-15.31 58.487l-2.364 1.89-2.362-1.888c-6.153-.122-12.42-.728-19.842-1.824l-3.079-.454v-12.774c-3.766-.463-7.734-1.037-12.034-1.734l-2.922-.431v-24.787l-2.332-1.409 2.342-1.463.011.007-.021-24.464 3.218-.556c4.122-.708 8.109-1.315 12.003-1.816v-12.785l3.192-.375c7.261-.853 13.405-1.332 19.462-1.432l2.365-1.891 2.363 1.889c6.054.097 12.146.573 19.308 1.433l3.162.38.006 12.863c1.475.166 3.112.371 4.785.6 2.611.357 5.205.762 7.26 1.148l2.939.553v24.47l2.399 1.439-2.399 1.439v24.47l-2.925.563c-1.923.37-3.959.728-6.118 1.074-1.885.302-3.837.583-5.86.84v12.741l-3.065.462c-7.209 1.087-13.36 1.696-19.493 1.822zm-20.399-29.962l2.398 1.438-2.398 1.438v2.819c-2.331-.216-4.718-.48-7.199-.793v-8.972l7.199 4.069v.002z" fill="#A7B9BE" fill-opacity=".5" clip-path="url(#a)"/><path d="M6.995 105.222c0 .779-.145 1.468-.434 2.068-.289.6-.701 1.063-1.235 1.388-.531.322-1.137.483-1.817.483-.681 0-1.285-.155-1.812-.466-.527-.315-.939-.763-1.235-1.344-.293-.582-.447-1.25-.461-2.003v-.45c0-.783.143-1.472.428-2.068.289-.6.701-1.063 1.235-1.389.538-.325 1.149-.488 1.834-.488.677 0 1.281.161 1.812.483.531.322.943.781 1.235 1.377.296.593.447 1.273.45 2.041v.368zm-1.96-.335c0-.794-.134-1.395-.401-1.805-.264-.413-.642-.62-1.137-.62-.966 0-1.477.724-1.532 2.173l-.005.587c0 .783.13 1.384.39 1.805.26.42.646.631 1.159.631.487 0 .862-.207 1.126-.62.264-.414.397-1.008.401-1.783v-.368zM13.793 102.55h-2.399v6.501h-1.927v-6.501h-2.355v-1.487h6.682v1.487zM21.293 109.051h-1.916v-3.335h-2.839v3.335h-1.927v-7.988h1.927v3.171h2.839v-3.171h1.916v7.988zM27.475 105.666h-3.031v1.904h3.58v1.481h-5.507v-7.988h5.518v1.487h-3.591v1.684h3.031v1.432zM31.78 106.231h-1.043v2.82h-1.927v-7.988h3.146c.948 0 1.689.21 2.224.631.534.42.802 1.015.802 1.783 0 .556-.114 1.017-.34 1.383-.223.365-.575.662-1.054.888l1.669 3.221v.082h-2.064l-1.411-2.82zm-1.043-1.487h1.219c.366 0 .64-.095.824-.285.187-.194.28-.463.28-.806 0-.344-.093-.613-.28-.807-.187-.197-.461-.296-.824-.296h-1.219v2.194zM40.268 106.928c0-.282-.101-.501-.302-.658-.198-.158-.547-.32-1.049-.489-.502-.168-.911-.331-1.23-.488-1.036-.508-1.554-1.207-1.554-2.096 0-.442.128-.832.384-1.168.26-.341.626-.604 1.098-.791.472-.19 1.003-.285 1.592-.285.575 0 1.089.103 1.543.307.458.205.813.498 1.065.878.253.377.379.809.379 1.295h-1.922c0-.325-.101-.578-.302-.757-.198-.179-.467-.269-.807-.269-.344 0-.617.077-.818.231-.198.149-.297.342-.297.576 0 .204.11.391.329.559.22.165.606.337 1.158.516.553.176 1.007.366 1.362.571.864.497 1.296 1.183 1.296 2.057 0 .699-.264 1.247-.791 1.646-.527.399-1.25.598-2.169.598-.648 0-1.235-.115-1.762-.346-.523-.234-.919-.552-1.186-.954-.264-.406-.395-.873-.395-1.399h1.933c0 .428.11.744.329.949.223.201.584.302 1.082.302.319 0 .569-.068.752-.203.187-.139.28-.333.28-.582zM49.86 109.051h-1.916l-2.833-4.97v4.97h-1.927v-7.988h1.927l2.828 4.971v-4.971h1.922v7.988zM57.849 105.222c0 .779-.145 1.468-.434 2.068-.289.6-.701 1.063-1.235 1.388-.531.322-1.137.483-1.817.483-.681 0-1.285-.155-1.812-.466-.527-.315-.939-.763-1.235-1.344-.293-.582-.447-1.25-.461-2.003v-.45c0-.783.143-1.472.428-2.068.289-.6.701-1.063 1.235-1.389.538-.325 1.149-.488 1.834-.488.677 0 1.281.161 1.812.483.531.322.943.781 1.235 1.377.296.593.447 1.273.45 2.041v.368zm-1.96-.335c0-.794-.134-1.395-.401-1.805-.264-.413-.642-.62-1.137-.62-.966 0-1.477.724-1.532 2.173l-.005.587c0 .783.13 1.384.39 1.805.26.42.646.631 1.158.631.487 0 .862-.207 1.126-.62.264-.414.397-1.008.401-1.783v-.368zM65.037 106.072l.917-5.009h1.911l-1.697 7.988h-1.999l-1.071-4.553-1.049 4.553h-1.993l-1.702-7.988h1.916l.917 5.009 1.098-5.009h1.636l1.115 5.009zM74.085 105.491c-.904-.26-1.563-.578-1.977-.955-.41-.38-.615-.849-.615-1.405 0-.629.251-1.148.752-1.558.505-.413 1.16-.62 1.966-.62.549 0 1.038.106 1.466.318.432.213.765.505.999.878.238.373.357.781.357 1.224h-1.06c0-.483-.154-.862-.461-1.136-.307-.278-.741-.417-1.301-.417-.52 0-.926.115-1.219.346-.289.226-.434.543-.434.949 0 .325.137.602.412.828.278.223.748.428 1.411.615.666.186 1.186.393 1.559.62.377.223.655.485.835.784.183.3.275.653.275 1.059 0 .648-.252 1.167-.758 1.559-.505.387-1.18.581-2.026.581-.549 0-1.061-.104-1.537-.313-.476-.212-.844-.501-1.104-.866-.256-.366-.384-.781-.384-1.246h1.06c0 .483.178.865.533 1.147.359.278.836.417 1.433.417.556 0 .983-.114 1.279-.34.297-.227.445-.536.445-.928 0-.391-.137-.693-.412-.905-.275-.216-.772-.428-1.493-.636zM83.93 101.93h-2.57v7.121h-1.049v-7.121h-2.564v-.867h6.183v.867zM90.744 101.063v5.432c-.004.753-.242 1.369-.714 1.849-.469.479-1.105.748-1.911.806l-.28.011c-.875 0-1.572-.236-2.092-.708-.52-.471-.783-1.121-.791-1.947v-5.443h1.043v5.41c0 .578.159 1.028.478 1.349.319.319.772.478 1.362.478.597 0 1.052-.159 1.367-.478.318-.318.478-.766.478-1.344v-5.415h1.06zM92.407 109.051v-7.988h2.257c.695 0 1.31.153 1.845.461.534.307.946.744 1.235 1.311.293.567.441 1.218.445 1.953v.511c0 .753-.146 1.413-.439 1.98-.289.567-.705 1.002-1.246 1.306-.538.304-1.166.459-1.883.466h-2.213zm1.054-7.121v6.26h1.109c.813 0 1.444-.252 1.894-.757.454-.505.681-1.224.681-2.156v-.467c0-.907-.214-1.611-.642-2.112-.425-.505-1.029-.761-1.812-.768h-1.23zM100.918 109.051h-1.054v-7.988h1.054v7.988zM109 105.315c0 .783-.132 1.467-.395 2.052-.264.582-.637 1.026-1.12 1.333-.484.308-1.047.461-1.692.461-.629 0-1.187-.153-1.674-.461-.487-.311-.866-.751-1.137-1.322-.267-.574-.404-1.238-.412-1.992v-.576c0-.768.134-1.446.401-2.035.268-.589.645-1.039 1.131-1.35.491-.315 1.051-.472 1.68-.472.641 0 1.205.156 1.692.466.49.308.867.756 1.131 1.345.263.585.395 1.267.395 2.046v.505zm-1.049-.516c0-.947-.19-1.673-.571-2.178-.38-.508-.913-.763-1.598-.763-.666 0-1.191.255-1.575.763-.381.505-.577 1.207-.588 2.107v.587c0 .918.192 1.641.577 2.167.388.523.92.785 1.597.785.681 0 1.208-.247 1.582-.741.373-.497.565-1.209.576-2.134v-.593z" fill="#A7B9BE" fill-opacity=".5"/><defs><clipPath id="a"><path fill="#fff" d="M12.021 0h84.802v90.076h-84.802z"/></clipPath></defs></svg>