<svg width="16" height="16" viewBox="0 0 16 16" xmlns="http://www.w3.org/2000/svg" fill="none"><path d="M.51 4.143l6.667 3.581c.224.12.514.177.805.177.292 0 .581-.057.805-.177l6.667-3.581c.435-.234.845-1.143.048-1.143h-15.039c-.797 0-.387.909.047 1.143zm15.146 1.958c-.493.257-6.566 3.421-6.868 3.58-.302.158-.514.177-.805.177-.292 0-.503-.019-.805-.177-.302-.158-6.34-3.324-6.834-3.58-.347-.181-.343.031-.343.195v6.483c0 .373.503.889.889.889h14.222c.386 0 .889-.516.889-.889v-6.482c0-.164.004-.376-.344-.195z" fill="#DB063D"/></svg>