<svg width="16" height="16" viewBox="0 0 16 16" xmlns="http://www.w3.org/2000/svg" fill="none"><path d="M14.809 12.105v-1.978c0-1.645-1.334-2.979-2.979-2.979h-1.702c-.705 0-1.277-.572-1.277-1.277v-1.978c.702-.323 1.192-1.028 1.192-1.852 0-1.129-.914-2.043-2.043-2.043s-2.043.914-2.043 2.043c0 .823.49 1.529 1.191 1.852v1.978c0 .705-.572 1.277-1.277 1.277h-1.702c-1.645 0-2.979 1.334-2.979 2.979v1.978c-.702.323-1.191 1.029-1.191 1.852 0 1.129.914 2.043 2.043 2.043s2.043-.915 2.043-2.043c0-.823-.49-1.528-1.191-1.852v-1.978c0-.705.572-1.277 1.277-1.277h1.702c.459 0 .889-.112 1.277-.298v3.552c-.702.323-1.191 1.029-1.191 1.852 0 1.129.914 2.043 2.043 2.043s2.043-.915 2.043-2.043c0-.823-.49-1.528-1.192-1.852v-3.552c.388.186.818.298 1.277.298h1.702c.705 0 1.277.572 1.277 1.277v1.978c-.702.323-1.192 1.028-1.192 1.852 0 1.129.914 2.043 2.043 2.043s2.043-.915 2.043-2.043c0-.823-.489-1.528-1.191-1.852zm-6.809-11.242c.65 0 1.178.527 1.178 1.179 0 .65-.528 1.179-1.178 1.179-.651 0-1.178-.529-1.178-1.179 0-.652.527-1.179 1.178-1.179zm-5.957 14.272c-.652 0-1.179-.529-1.179-1.179 0-.652.527-1.179 1.179-1.179.65 0 1.178.527 1.178 1.179 0 .65-.528 1.179-1.178 1.179zm5.957 0c-.652 0-1.179-.529-1.179-1.179 0-.652.527-1.179 1.179-1.179.65 0 1.178.527 1.178 1.179 0 .65-.528 1.179-1.178 1.179zm5.957 0c-.652 0-1.179-.529-1.179-1.179 0-.652.527-1.179 1.179-1.179.65 0 1.178.527 1.178 1.179 0 .65-.528 1.179-1.178 1.179z" fill="#DB063D"/></svg>