<svg width="16" height="16" viewBox="0 0 16 16" fill="none" xmlns="http://www.w3.org/2000/svg">
<path d="M0.510224 4.14311C0.944001 4.376 6.95289 7.60444 7.17689 7.72444C7.40089 7.84444 7.69067 7.90133 7.98222 7.90133C8.27378 7.90133 8.56356 7.84444 8.78756 7.72444C9.01156 7.60444 15.0204 4.376 15.4542 4.14311C15.8889 3.90933 16.2996 3 15.5022 3H0.463112C-0.334221 3 0.0764459 3.90933 0.510224 4.14311ZM15.656 6.10133C15.1627 6.35822 9.08978 9.52266 8.78756 9.68089C8.48533 9.83911 8.27378 9.85778 7.98222 9.85778C7.69067 9.85778 7.47911 9.83911 7.17689 9.68089C6.87467 9.52266 0.836446 6.35733 0.343112 6.10044C-0.00355408 5.91911 1.43655e-06 6.13155 1.43655e-06 6.29511C1.43655e-06 6.45867 1.43655e-06 12.7778 1.43655e-06 12.7778C1.43655e-06 13.1511 0.503112 13.6667 0.88889 13.6667H15.1111C15.4969 13.6667 16 13.1511 16 12.7778C16 12.7778 16 6.45955 16 6.296C16 6.13244 16.0036 5.92 15.656 6.10133Z" fill="#DB063D"/>
</svg>
