<svg display="none">
  <symbol id="icon-close" viewBox="0 0 26 26" fill="inherit" xmlns="http://www.w3.org/2000/svg">
    <path fill-rule="evenodd" clip-rule="evenodd" d="M12.9999 9.59013L21.6755 0.914563C22.5677 0.022396 23.391 0.690584 24.3136 1.6132C25.2362 2.53581 25.9044 3.35916 25.0122 4.25132L16.3367 12.9269L25.0123 21.6025C25.9044 22.4947 25.2363 23.318 24.3136 24.2406C23.391 25.1632 22.5677 25.8314 21.6755 24.9392L12.9999 16.2637L4.32432 24.9392C3.43216 25.8314 2.60881 25.1632 1.6862 24.2406C0.763581 23.318 0.0953942 22.4947 0.987561 21.6025L9.66315 12.9269L0.987585 4.25132C0.0954179 3.35916 0.763605 2.53581 1.68622 1.6132C2.60883 0.690584 3.43218 0.022396 4.32435 0.914563L12.9999 9.59013Z" fill="inherit" />
  </symbol>
  <symbol id="logo" viewBox="0 0 240 67" xmlns="http://www.w3.org/2000/svg" fill="none">
    <path fill-rule="evenodd" clip-rule="evenodd" d="M34.009 0c12.918 0 24.144 7.139 29.869 17.635-1.62.496-3.24 1.015-4.855 1.553-4.98-8.499-14.28-14.217-24.938-14.217-15.9 0-28.794 12.739-28.794 28.448 0 7.116 2.643 13.617 7.011 18.608l-2.055 5.368c-6.261-6.077-10.146-14.538-10.146-23.896 0-18.504 15.178-33.5 33.908-33.5zm33.091 26.186c.535 2.356.817 4.802.817 7.314 0 18.499-15.183 33.5-33.908 33.5-7.551 0-14.524-2.441-20.163-6.563 1.2-1.275 2.423-2.521 3.67-3.749 4.688 3.263 10.404 5.18 16.569 5.18 15.905 0 28.794-12.734 28.794-28.448 0-1.874-.182-3.706-.535-5.482 1.563-.604 3.145-1.19 4.755-1.752zM38.969 13.82l-9.596-.005 5.926 15.548c2.629-1.469 5.324-2.833 8.067-4.098l-4.397-11.445zm.191 25.667l3.264 8.565h9.697l-5.061-13.164c-1.042.557-2.074 1.128-3.092 1.709-1.634.935-3.236 1.898-4.808 2.89z" fill="#29829A" />
    <path d="M30.426 29.373l-2.299-6.077-10.256 26.814c7.116-6.511 15.021-12.342 23.833-17.38 8.22-4.698 17.229-8.707 27.126-11.927-.593.142-1.176.302-1.749.472-6.132 1.818-12.273 3.928-18.199 6.45-5.921 2.517-11.604 5.42-16.818 8.82l-5.792 3.777 2.433-6.417 1.72-4.533z" />
    <path fill-rule="evenodd" clip-rule="evenodd" d="M32.838 29.373l-4.703-12.423-16.096 42.07c17.635-18.773 40.632-32.848 71.572-39.983-5.343-2.054-11.694-1.53-17.181.094-12.431 3.683-24.89 8.565-35.609 15.553l2.017-5.312z" fill="#DB063D" />
    <path d="M86.977 48.161h-7.785l10.16-26.521 3.436 10.029-2.218 6.436h6.39c-2.031-5.897-4.034-11.663-6.05-17.555h6.849l10.581 27.612h-7.785l-1.797-4.929h-9.984l-1.797 4.929zm33.74 0h-7.188v-22.088h-8.387v-5.524h23.958v5.524h-8.383v22.088zm18.366-5.718c-.134 1.893-.745 3.385-1.84 4.476-1.089 1.091-2.432 1.638-4.028 1.638-1.601 0-3.102-.132-4.512-.397v-5.326h1.792c.507 0 .927-.17 1.262-.51.33-.345.511-.765.535-1.265l1.2-20.511h22.16v27.612h-7.187v-22.088h-8.383l-.999 16.37zm26.352 5.718h-7.79l10.151-26.488 3.436 10.034-2.208 6.398h6.39c-2.05-5.954-4.038-11.611-6.074-17.555h6.872l10.581 27.612h-7.785l-1.797-4.929h-9.979l-1.797 4.929zm47.314 0h-7.188v-11.242h-9.984v11.242h-7.188v-27.612h7.188v10.85h9.984v-10.85h7.188v27.612zm18.762 0h-7.187v-22.088h-8.383v-5.524h23.958v5.524h-8.388v22.088z" fill="#262626" />
    <path d="M86.04 54.916c.2 0 .56.04 1.08.12v1.615h-.48c-.12 0-.228.04-.324.12-.096.072-.168.151-.216.239l-1.14 2.154 2.34 4.247h-2.28l-1.86-3.41h-1.08v3.41h-2.16v-8.375h2.16v3.29h1.08l1.2-2.273c.176-.335.392-.606.648-.814.264-.215.608-.323 1.032-.323zM89.338 55.036h5.04c.84 0 1.448.192 1.824.574.384.375.576.981.576 1.819v1.196c0 .837-.192 1.448-.576 1.831-.376.375-.984.562-1.824.562h-2.88v2.393h-2.16v-8.375zm5.28 2.393c0-.479-.24-.718-.72-.718h-2.4v2.632h2.4c.48 0 .72-.239.72-.718v-1.196zM105.837 63.411h-6.66v-8.375h6.66v1.675h-4.5v1.615h3.54v1.675h-3.54v1.735h4.5v1.675zM109.314 55.036h6.3v6.7h.9v3.23h-2.04l-.12-1.555h-4.68l-.12 1.555h-2.04v-3.23h.78c.232-.263.404-.558.516-.885.12-.335.188-.638.204-.909l.3-4.905zm4.14 6.7v-5.025h-2.22l-.18 2.991c-.024.487-.144.977-.36 1.472-.088.207-.188.395-.3.562h3.06zM126.118 63.411h-2.16v-5.145l-2.88 5.145h-2.28v-8.375h2.16v5.145l2.88-5.145h2.28v8.375zM132.963 63.411h-2.16v-6.7h-2.52v-1.675h7.2v1.675h-2.52v6.7zM144.965 63.411h-2.16v-3.41h-3v3.41h-2.16v-8.375h2.16v3.29h3v-3.29h2.16v8.375zM149.89 57.907h2.76c.84 0 1.448.191 1.824.574.384.375.576.981.576 1.819v.718c0 .838-.192 1.448-.576 1.831-.376.375-.984.562-1.824.562h-4.92v-8.375h2.16v2.872zm8.28 5.503h-2.16v-8.375h2.16v8.375zm-5.28-3.111c0-.478-.24-.718-.72-.718h-2.28v2.154h2.28c.48 0 .72-.239.72-.718v-.718zM166.093 63.411v-5.145l-2.88 5.145h-2.28v-8.375h2.16v5.145l2.88-5.145h2.28v8.375h-2.16zm-2.16-8.973c-1.04 0-1.56-.518-1.56-1.555v-.359h1.56v.299c0 .12.04.219.12.299.08.08.18.12.3.12h.36c.12 0 .22-.04.3-.12.08-.08.12-.179.12-.299v-.299h1.56v.359c0 1.037-.52 1.555-1.56 1.555h-1.2zM175.456 61.676c1.952.12 3.272.18 3.96.18.184 0 .328-.052.432-.156.112-.112.168-.259.168-.443v-1.137h-3.192v-1.675h3.192v-1.017c0-.479-.24-.718-.72-.718h-3.72v-1.675h4.2c.84 0 1.448.192 1.824.574.384.375.576.981.576 1.819v3.829c0 .782-.184 1.356-.552 1.723-.368.367-.944.55-1.728.55-1.2 0-2.68-.08-4.44-.239v-1.615zM190.818 54.916c.2 0 .56.04 1.08.12v1.615h-.48c-.12 0-.228.04-.324.12-.096.072-.168.151-.216.239l-1.14 2.154 2.34 4.247h-2.28l-1.86-3.41h-1.08v3.41h-2.16v-8.375h2.16v3.29h1.08l1.2-2.273c.176-.335.392-.606.648-.814.264-.215.608-.323 1.032-.323zM200.595 63.291c-1.784.16-3.264.239-4.44.239-.784 0-1.36-.184-1.728-.55-.368-.367-.552-.941-.552-1.723v-3.829c0-.838.188-1.444.564-1.819.384-.383.996-.574 1.836-.574h4.32v1.675h-3.84c-.48 0-.72.239-.72.718v3.829c0 .183.052.331.156.443.112.104.252.156.42.156h.552l.624-.024.648-.024c.224-.008.508-.024.852-.048l1.308-.084v1.615zM210.197 63.411h-2.16v-6.7h-3v6.7h-2.16v-8.375h7.32v8.375zM219.622 63.411h-6.66v-8.375h6.66v1.675h-4.5v1.615h3.54v1.675h-3.54v1.735h4.5v1.675zM221.9 55.036h5.04c.84 0 1.448.192 1.824.574.384.375.576.981.576 1.819v1.196c0 .837-.192 1.448-.576 1.831-.376.375-.984.562-1.824.562h-2.88v2.393h-2.16v-8.375zm5.28 2.393c0-.479-.24-.718-.72-.718h-2.4v2.632h2.4c.48 0 .72-.239.72-.718v-1.196zM235.819 63.411h-2.16v-6.7h-2.52v-1.675h7.2v1.675h-2.52v6.7z" fill="#29829A" />
  </symbol>
  <symbol id="logo-vertical" viewBox="0 0 123 98" xmlns="http://www.w3.org/2000/svg" fill="none">
    <path fill-rule="evenodd" clip-rule="evenodd" d="M60.212 22.853l-3.6-9.665-12.318 32.73c13.494-14.603 31.099-25.554 54.779-31.107-4.09-1.598-8.951-1.191-13.15.074-9.514 2.867-19.051 6.665-27.255 12.1l1.543-4.132z" fill="#DE1E41" />
    <path d="M5.959 85.344h-5.959l7.778-20.635 2.628 7.803-1.697 5.006h4.889c-1.555-4.587-3.086-9.072-4.63-13.657h5.241l8.098 21.483h-5.959l-1.375-3.836h-7.64l-1.375 3.836zm25.822 0h-5.501v-17.187h-6.417v-4.297h18.335v4.297h-6.417v17.187zm14.057-4.45c-.102 1.473-.571 2.634-1.406 3.483-.835.849-1.864 1.274-3.086 1.274-1.222 0-2.373-.102-3.453-.307v-4.143h1.375c.387 0 .708-.133.962-.399.255-.266.392-.593.413-.982l.917-15.959h16.96v21.483h-5.501v-17.187h-6.417l-.764 12.737zm20.169 4.45h-5.959l7.768-20.608 2.629 7.804-1.687 4.978h4.889c-1.57-4.633-3.091-9.032-4.649-13.657h5.26l8.098 21.483h-5.959l-1.375-3.836h-7.64l-1.375 3.836zm36.213 0h-5.501v-8.747h-7.64v8.747h-5.501v-21.483h5.501v8.44h7.64v-8.44h5.501v21.483zm14.363 0h-5.501v-17.187h-6.417v-4.297h18.335v4.297h-6.417v17.187z" fill="#1C1B18" />
    <path fill-rule="evenodd" clip-rule="evenodd" d="M61.107 0c9.887 0 18.481 5.552 22.862 13.722-1.24.386-2.48.788-3.716 1.208-3.812-6.612-10.931-11.061-19.086-11.061-12.172 0-22.039 9.909-22.039 22.134 0 5.535 2.022 10.595 5.366 14.475l-1.572 4.177c-4.793-4.729-7.767-11.311-7.767-18.592 0-14.394 11.619-26.063 25.951-26.063zm25.329 20.373c.406 1.831.622 3.735.622 5.69 0 14.394-11.619 26.063-25.951 26.063-5.779 0-11.117-1.898-15.43-5.106.917-.989 1.853-1.96 2.809-2.914 3.586 2.538 7.96 4.03 12.681 4.03 12.172 0 22.039-9.909 22.039-22.134 0-1.459-.142-2.885-.41-4.265 1.195-.471 2.408-.927 3.641-1.364zM64.906 10.754l-7.346-.004 4.537 12.098c2.01-1.144 4.072-2.205 6.173-3.191l-3.364-8.902zm.145 19.969l2.5 6.665h7.42l-3.871-10.245c-.799.436-1.588.88-2.367 1.332-1.252.727-2.478 1.476-3.681 2.247zM5.384 89.985c.153 0 .429.031.827.092v1.242h-.368c-.092 0-.175.031-.248.092-.074.055-.129.117-.165.184l-.873 1.656 1.792 3.266h-1.746l-1.424-2.622h-.827v2.622h-1.654v-6.441h1.654v2.53h.827l.919-1.748c.135-.258.3-.466.496-.626.202-.166.465-.249.79-.249zM7.908 90.077h3.859c.643 0 1.109.147 1.397.442.294.288.441.755.441 1.399v.92c0 .644-.147 1.114-.441 1.408-.288.288-.753.432-1.397.432h-2.205v1.84h-1.654v-6.441zm4.043 1.84c0-.368-.184-.552-.551-.552h-1.838v2.025h1.838c.367 0 .551-.184.551-.552v-.92zM20.543 96.518h-5.1v-6.441h5.1v1.288h-3.446v1.242h2.711v1.288h-2.711v1.334h3.446v1.288zM23.206 90.077h4.824v5.153h.689v2.484h-1.562l-.092-1.196h-3.584l-.092 1.196h-1.562v-2.484h.597c.178-.203.309-.429.395-.681.092-.257.144-.491.156-.699l.23-3.772zm3.17 5.153v-3.865h-1.7l-.138 2.3c-.019.374-.11.752-.276 1.132-.067.16-.144.304-.23.433h2.343zM36.073 96.518h-1.654v-3.956l-2.205 3.956h-1.746v-6.441h1.654v3.957l2.206-3.957h1.746v6.441zM41.316 96.518h-1.654v-5.153h-1.93v-1.288h5.514v1.288h-1.93v5.153zM50.506 96.518h-1.654v-2.622h-2.297v2.622h-1.654v-6.441h1.654v2.53h2.297v-2.53h1.654v6.441zM54.278 92.285h2.113c.643 0 1.109.147 1.397.442.294.288.441.755.441 1.399v.552c0 .644-.147 1.114-.441 1.408-.288.288-.753.432-1.397.432h-3.767v-6.441h1.654v2.208zm6.34 4.232h-1.654v-6.441h1.654v6.441zm-4.043-2.392c0-.368-.184-.552-.551-.552h-1.746v1.656h1.746c.368 0 .551-.184.551-.552v-.552zM66.686 96.518v-3.956l-2.205 3.956h-1.746v-6.441h1.654v3.957l2.205-3.957h1.746v6.441h-1.654zm-1.654-6.901c-.796 0-1.194-.399-1.194-1.196v-.276h1.194v.23c0 .092.031.169.092.23s.138.092.23.092h.276c.092 0 .168-.031.23-.092.061-.061.092-.138.092-.23v-.23h1.195v.276c0 .797-.398 1.196-1.195 1.196h-.919zM73.856 95.184c1.495.092 2.506.138 3.032.138.141 0 .251-.04.331-.12.086-.086.129-.199.129-.34v-.874h-2.444v-1.288h2.444v-.782c0-.368-.184-.552-.551-.552h-2.848v-1.288h3.216c.643 0 1.109.147 1.397.442.294.288.441.755.441 1.399v2.945c0 .601-.141 1.043-.423 1.325-.282.282-.723.423-1.323.423-.918 0-2.052-.061-3.4-.184v-1.242zM85.62 89.985c.153 0 .429.031.827.092v1.242h-.368c-.092 0-.175.031-.248.092-.073.055-.129.117-.165.184l-.873 1.656 1.792 3.266h-1.746l-1.424-2.622h-.827v2.622h-1.654v-6.441h1.654v2.53h.827l.919-1.748c.135-.258.3-.466.496-.626.202-.166.465-.249.79-.249zM93.107 96.426c-1.366.123-2.499.184-3.4.184-.601 0-1.042-.141-1.323-.423-.282-.282-.423-.724-.423-1.325v-2.945c0-.644.144-1.11.432-1.399.294-.294.763-.442 1.406-.442h3.308v1.288h-2.941c-.368 0-.551.184-.551.552v2.945c0 .141.04.254.12.34.086.08.193.12.322.12h.423l.478-.018.496-.018.653-.037 1.002-.064v1.242zM100.46 96.518h-1.654v-5.153h-2.297v5.153h-1.654v-6.441h5.605v6.441zM107.678 96.518h-5.1v-6.441h5.1v1.288h-3.446v1.242h2.711v1.288h-2.711v1.334h3.446v1.288zM109.422 90.077h3.859c.644 0 1.109.147 1.397.442.294.288.441.755.441 1.399v.92c0 .644-.147 1.114-.441 1.408-.288.288-.753.432-1.397.432h-2.205v1.84h-1.654v-6.441zm4.043 1.84c0-.368-.184-.552-.551-.552h-1.838v2.025h1.838c.367 0 .551-.184.551-.552v-.92zM120.081 96.518h-1.654v-5.153h-1.93v-1.288h5.514v1.288h-1.93v5.153z" fill="#27839C" />
  </symbol>
  <symbol id="icon-whatsapp" viewBox="0 0 16 16" xmlns="http://www.w3.org/2000/svg" fill="inherit">
    <path d="M.038 16l1.125-4.109c-.694-1.203-1.059-2.566-1.058-3.964.002-4.371 3.559-7.927 7.929-7.927 2.121.001 4.111.827 5.609 2.325 1.497 1.499 2.321 3.491 2.32 5.609-.002 4.371-3.559 7.928-7.929 7.928-1.327-.001-2.634-.333-3.792-.965l-4.203 1.103zm4.398-2.538c1.117.663 2.184 1.061 3.595 1.061 3.632 0 6.591-2.956 6.593-6.59.001-3.641-2.943-6.593-6.587-6.595-3.635 0-6.591 2.956-6.593 6.589-.001 1.483.434 2.594 1.164 3.756l-.666 2.432 2.495-.654zm7.591-3.643c-.049-.083-.181-.132-.38-.231-.198-.099-1.172-.579-1.354-.645-.181-.066-.313-.099-.446.099-.132.198-.512.645-.627.777-.115.132-.231.149-.429.049-.198-.099-.837-.308-1.593-.983-.589-.525-.987-1.174-1.102-1.373-.115-.198-.012-.305.087-.404l.297-.347c.101-.115.133-.197.2-.33.066-.132.033-.248-.017-.347-.05-.099-.446-1.074-.611-1.471-.161-.386-.325-.334-.446-.34l-.38-.007c-.132 0-.347.049-.528.248-.181.199-.693.677-.693 1.653 0 .975.71 1.917.809 2.049.099.132 1.397 2.133 3.384 2.991.473.204.842.326 1.129.417.475.151.907.129 1.248.079.381-.057 1.172-.479 1.337-.942.165-.463.165-.86.115-.943z" fill="inherit" />
  </symbol>
  <symbol id="icon-callback" viewBox="0 0 16 16" xmlns="http://www.w3.org/2000/svg" fill="inherit">
    <path d="M8 0c-4.418 0-8 3.582-8 8s3.582 8 8 8 8-3.582 8-8.001c0-4.417-3.582-7.999-8-7.999zm0 14.332c-3.497 0-6.333-2.835-6.333-6.333s2.835-6.333 6.333-6.333 6.334 2.835 6.334 6.333-2.837 6.332-6.334 6.332zM8.616 8.615c-.792.791-1.709 1.548-2.072 1.186-.519-.519-.839-.971-1.983-.051-1.144.919-.265 1.532.238 2.034.58.58 2.743.031 4.881-2.106 2.137-2.137 2.685-4.299 2.104-4.88-.503-.503-1.113-1.381-2.032-.238-.92 1.144-.468 1.464.052 1.983.361.363-.396 1.28-1.187 2.071z" fill="inherit" />
  </symbol>
</svg>